<svg xmlns="http://www.w3.org/2000/svg" viewBox="0 0 39.9 33.27"><defs><style>.cls-1,.cls-2{fill:#039be5;}.cls-1{fill-rule:evenodd;}</style></defs><title>Asset 2</title><g id="Layer_2" data-name="Layer 2"><g id="Layer_1-2" data-name="Layer 1"><path class="cls-1" d="M30.22,29.67l-.46-1.26h5.63l.74,1.26ZM29,26.42h5.2l.7,1.21H29.48Zm-5.61,3.25-.23-1.26h5.71l.46,1.26Zm-.55-3.1,0-.15h5.34l.44,1.21H23.06Zm-.34-1.93h5l.37,1h-5.2Zm-6.1,5,.22-1.26h5.73l.23,1.26Zm-4.89-4,.36-1h4.61l-.18,1Zm4.44,2H10.82l.4-1.08,0-.13h4.94Zm-.36,2H10.08l.46-1.26h5.31ZM5,27.63l.7-1.21h4.76L10,27.63Zm4.27,2H3.77l.74-1.26H9.69Zm1.84-5-.37,1H6.12l.58-1Zm6.08,1,.18-1h4.4l.17,1Zm4.89.78,0,.15.19,1.06H16.8L17,26.57l0-.15Zm11.75-.78h-5l-.36-1H33.2ZM5.8,2.34H34.1V21.27H5.8ZM39,28.39,36.44,23.3V2.16A2.16,2.16,0,0,0,34.28,0H5.63A2.16,2.16,0,0,0,3.47,2.16V23.3L1,28.39a9.36,9.36,0,0,0-1,2.67v.74c0,.81,1,1.47,2.16,1.47H37.74c1.19,0,2.16-.66,2.16-1.47v-.74A9.58,9.58,0,0,0,39,28.39Z"/><polygon class="cls-2" points="24.65 8.61 25.61 14.65 26.75 12.76 29.23 15.88 30.74 14.68 28.24 11.53 30.34 10.77 24.65 8.61"/><rect class="cls-2" x="8.32" y="17.65" width="23.21" height="1.08"/><rect class="cls-2" x="8.32" y="14.62" width="15.14" height="1.08"/><rect class="cls-2" x="8.32" y="11.59" width="10.89" height="1.07"/><rect class="cls-2" x="8.32" y="8.55" width="13.55" height="1.08"/><rect class="cls-2" x="8.32" y="5.52" width="23.11" height="1.07"/></g></g></svg>