<svg xmlns="http://www.w3.org/2000/svg" viewBox="0 0 20.97 36.73"><defs><style>.cls-1{fill:#039be5;fill-rule:evenodd;}</style></defs><title>Asset 3</title><g id="Layer_2" data-name="Layer 2"><g id="Layer_1-2" data-name="Layer 1"><path class="cls-1" d="M19,30.76H2V4.84H19Zm-8.52,4.6a1.7,1.7,0,1,1,1.7-1.7A1.7,1.7,0,0,1,10.49,35.36ZM6.33,2.17h8.31a.4.4,0,1,1,0,.79H6.33a.4.4,0,1,1,0-.79ZM18.55,0H2.42A2.42,2.42,0,0,0,0,2.41v31.9a2.42,2.42,0,0,0,2.42,2.42H18.55A2.42,2.42,0,0,0,21,34.31V2.41A2.41,2.41,0,0,0,18.55,0Z"/></g></g></svg>