<svg xmlns="http://www.w3.org/2000/svg" viewBox="0 0 39.29 33.29"><defs><style>.cls-1,.cls-2{fill:#039be5;}.cls-1{fill-rule:evenodd;}</style></defs><title>Asset 1</title><g id="Layer_2" data-name="Layer 2"><g id="Layer_1-2" data-name="Layer 1"><path class="cls-1" d="M19.64,21.89a8.62,8.62,0,1,1,8.63-8.61A8.62,8.62,0,0,1,19.64,21.89ZM39.27,0H0V26.55H39.27Z"/><path class="cls-2" d="M23.66,12.19l-5.3-3c-1-.6-1.88-.12-1.88,1.08v6.11c0,1.2.84,1.68,1.88,1.08l5.3-3.05A1.15,1.15,0,0,0,23.66,12.19Z"/><polygon class="cls-2" points="19.56 30.24 19.56 29.22 14.84 29.22 14.84 30.24 0 30.24 0 32.28 14.84 32.28 14.84 33.29 19.56 33.29 19.56 32.28 39.29 32.28 39.29 30.24 19.56 30.24"/></g></g></svg>